<svg xmlns="http://www.w3.org/2000/svg" width="331.3555908203125" height="331.42108154296875" viewBox="-67.484375 -65.89100646972656 331.3555908203125 331.42108154296875"><title>Neo4j Graph Visualization</title><desc>Created using Neo4j (http://www.neo4j.com/)</desc><g class="layer relationships"><g class="relationship" transform="translate(115.50413626194549 236.53006103309139) rotate(262.53295377057077)"><path class="outline" fill="#A5ABB6" stroke="none" d="M 25 0.5 L 43.03677771051994 0.5 L 43.03677771051994 -0.5 L 25 -0.5 Z M 88.59927771051994 0.5 L 106.63605542103988 0.5 L 106.63605542103988 3.5 L 113.63605542103988 0 L 106.63605542103988 -3.5 L 106.63605542103988 -0.5 L 88.59927771051994 -0.5 Z"/><text text-anchor="middle" pointer-events="none" font-size="8px" fill="#000000" x="65.81802771051994" y="3" transform="rotate(180 65.81802771051994 0)" font-family="sans-serif">ACTED_IN</text></g><g class="relationship" transform="translate(170.91520291463607 213.68192204288738) rotate(237.35388102999764)"><path class="outline" fill="#A5ABB6" stroke="none" d="M 25 0.5 L 41.77678983202688 0.5 L 41.77678983202688 -0.5 L 25 -0.5 Z M 87.33928983202688 0.5 L 104.11607966405376 0.5 L 104.11607966405376 3.5 L 111.11607966405376 0 L 104.11607966405376 -3.5 L 104.11607966405376 -0.5 L 87.33928983202688 -0.5 Z"/><text text-anchor="middle" pointer-events="none" font-size="8px" fill="#000000" x="64.55803983202688" y="3" transform="rotate(180 64.55803983202688 0)" font-family="sans-serif">ACTED_IN</text></g><g class="relationship" transform="translate(213.3197015784786 171.26175984807608) rotate(211.93311874772303)"><path class="outline" fill="#A5ABB6" stroke="none" d="M 25 0.5 L 41.96240037334549 0.5 L 41.96240037334549 -0.5 L 25 -0.5 Z M 87.52490037334549 0.5 L 104.48730074669098 0.5 L 104.48730074669098 3.5 L 111.48730074669098 0 L 104.48730074669098 -3.5 L 104.48730074669098 -0.5 L 87.52490037334549 -0.5 Z"/><text text-anchor="middle" pointer-events="none" font-size="8px" fill="#000000" x="64.74365037334549" y="3" transform="rotate(180 64.74365037334549 0)" font-family="sans-serif">ACTED_IN</text></g><g class="relationship" transform="translate(225.15864280733916 56.10827402656371) rotate(521.4018825734815)"><path class="outline" fill="#A5ABB6" stroke="none" d="M 25 0.5 L 41.071529620811205 0.5 L 41.071529620811205 -0.5 L 25 -0.5 Z M 86.6340296208112 0.5 L 102.70555924162241 0.5 L 102.70555924162241 3.5 L 109.70555924162241 0 L 102.70555924162241 -3.5 L 102.70555924162241 -0.5 L 86.6340296208112 -0.5 Z"/><text text-anchor="middle" pointer-events="none" font-size="8px" fill="#000000" x="63.852779620811205" y="3" transform="rotate(180 63.852779620811205 0)" font-family="sans-serif">ACTED_IN</text></g><g class="relationship" transform="translate(234.87121887607424 115.32106908779726) rotate(186.7462860143246)"><path class="outline" fill="#A5ABB6" stroke="none" d="M 25 0.5 L 42.2254514788271 0.5 L 42.2254514788271 -0.5 L 25 -0.5 Z M 89.1160764788271 0.5 L 106.3415279576542 0.5 L 106.3415279576542 3.5 L 113.3415279576542 0 L 106.3415279576542 -3.5 L 106.3415279576542 -0.5 L 89.1160764788271 -0.5 Z"/><text text-anchor="middle" pointer-events="none" font-size="8px" fill="#000000" x="65.6707639788271" y="3" transform="rotate(180 65.6707639788271 0)" font-family="sans-serif">DIRECTED</text></g><g class="relationship" transform="translate(196.71927130306133 3.2766352732785027) rotate(496.01013494120355)"><path class="outline" fill="#A5ABB6" stroke="none" d="M 25 0.5 L 47.575660091759886 0.5 L 47.575660091759886 -0.5 L 25 -0.5 Z M 83.34909759175989 0.5 L 105.92475768351977 0.5 L 105.92475768351977 3.5 L 112.92475768351977 0 L 105.92475768351977 -3.5 L 105.92475768351977 -0.5 L 83.34909759175989 -0.5 Z"/><text text-anchor="middle" pointer-events="none" font-size="8px" fill="#000000" x="65.46237884175989" y="3" transform="rotate(180 65.46237884175989 0)" font-family="sans-serif">WROTE</text></g><g class="relationship" transform="translate(143.19264835305893 -28.345956891310493) rotate(469.73335049111773)"><path class="outline" fill="#A5ABB6" stroke="none" d="M 25 0.5 L 41.4012766173724 0.5 L 41.4012766173724 -0.5 L 25 -0.5 Z M 86.9637766173724 0.5 L 103.3650532347448 0.5 L 103.3650532347448 3.5 L 110.3650532347448 0 L 103.3650532347448 -3.5 L 103.3650532347448 -0.5 L 86.9637766173724 -0.5 Z"/><text text-anchor="middle" pointer-events="none" font-size="8px" fill="#000000" x="64.1825266173724" y="3" transform="rotate(180 64.1825266173724 0)" font-family="sans-serif">ACTED_IN</text></g><g class="relationship" transform="translate(80.90344239953737 -36.89101173443531) rotate(443.04557095058277)"><path class="outline" fill="#A5ABB6" stroke="none" d="M 25 0.5 L 42.20294561878593 0.5 L 42.20294561878593 -0.5 L 25 -0.5 Z M 87.76544561878593 0.5 L 104.96839123757186 0.5 L 104.96839123757186 3.5 L 111.96839123757186 0 L 104.96839123757186 -3.5 L 104.96839123757186 -0.5 L 87.76544561878593 -0.5 Z"/><text text-anchor="middle" pointer-events="none" font-size="8px" fill="#000000" x="64.98419561878593" y="3" font-family="sans-serif">ACTED_IN</text></g><g class="relationship" transform="translate(-17.29555716923715 27.15145637071429) rotate(392.06950726227956)"><path class="outline" fill="#A5ABB6" stroke="none" d="M 25 0.5 L 41.44502451280526 0.5 L 41.44502451280526 -0.5 L 25 -0.5 Z M 87.00752451280526 0.5 L 103.45254902561052 0.5 L 103.45254902561052 3.5 L 110.45254902561052 0 L 103.45254902561052 -3.5 L 103.45254902561052 -0.5 L 87.00752451280526 -0.5 Z"/><text text-anchor="middle" pointer-events="none" font-size="8px" fill="#000000" x="64.22627451280526" y="3" font-family="sans-serif">ACTED_IN</text></g><g class="relationship" transform="translate(24.83383710508578 -15.554093619418502) rotate(417.6316305419224)"><path class="outline" fill="#A5ABB6" stroke="none" d="M 25 0.5 L 41.5736882137723 0.5 L 41.5736882137723 -0.5 L 25 -0.5 Z M 87.1361882137723 0.5 L 103.7098764275446 0.5 L 103.7098764275446 3.5 L 110.7098764275446 0 L 103.7098764275446 -3.5 L 103.7098764275446 -0.5 L 87.1361882137723 -0.5 Z"/><text text-anchor="middle" pointer-events="none" font-size="8px" fill="#000000" x="64.3549382137723" y="3" font-family="sans-serif">ACTED_IN</text></g><g class="relationship" transform="translate(-38.484375188949265 83.27503900908162) rotate(366.6258384608307)"><path class="outline" fill="#A5ABB6" stroke="none" d="M 25 0.5 L 42.16185935738483 0.5 L 42.16185935738483 -0.5 L 25 -0.5 Z M 87.72435935738483 0.5 L 104.88621871476965 0.5 L 104.88621871476965 3.5 L 111.88621871476965 0 L 104.88621871476965 -3.5 L 104.88621871476965 -0.5 L 87.72435935738483 -0.5 Z"/><text text-anchor="middle" pointer-events="none" font-size="8px" fill="#000000" x="64.94310935738483" y="3" font-family="sans-serif">ACTED_IN</text></g><g class="relationship" transform="translate(1.1784036501007906 202.2601328399252) rotate(313.0244892136634)"><path class="outline" fill="#A5ABB6" stroke="none" d="M 25 0.5 L 49.18899318782667 0.5 L 49.18899318782667 -0.5 L 25 -0.5 Z M 84.96243068782667 0.5 L 109.15142387565334 0.5 L 109.15142387565334 3.5 L 116.15142387565334 0 L 109.15142387565334 -3.5 L 109.15142387565334 -0.5 L 84.96243068782667 -0.5 Z"/><text text-anchor="middle" pointer-events="none" font-size="8px" fill="#000000" x="67.07571193782667" y="3" font-family="sans-serif">WROTE</text></g><g class="relationship" transform="translate(-28.377318448604207 145.65524648598262) rotate(339.6892918387723)"><path class="outline" fill="#A5ABB6" stroke="none" d="M 25 0.5 L 45.71801804615197 0.5 L 45.71801804615197 -0.5 L 25 -0.5 Z M 81.49145554615197 0.5 L 102.20947359230394 0.5 L 102.20947359230394 3.5 L 109.20947359230394 0 L 102.20947359230394 -3.5 L 102.20947359230394 -0.5 L 81.49145554615197 -0.5 Z"/><text text-anchor="middle" pointer-events="none" font-size="8px" fill="#000000" x="63.60473679615197" y="3" font-family="sans-serif">WROTE</text></g><g class="relationship" transform="translate(56.60395453512729 225.24489002050592) rotate(287.95348814777316)"><path class="outline" fill="#A5ABB6" stroke="none" d="M 25 0.5 L 44.930049135330336 0.5 L 44.930049135330336 -0.5 L 25 -0.5 Z M 80.70348663533034 0.5 L 100.63353577066067 0.5 L 100.63353577066067 3.5 L 107.63353577066067 0 L 100.63353577066067 -3.5 L 100.63353577066067 -0.5 L 80.70348663533034 -0.5 Z"/><text text-anchor="middle" pointer-events="none" font-size="8px" fill="#000000" x="62.816767885330336" y="3" font-family="sans-serif">WROTE</text></g></g><g class="layer nodes"><g class="node" transform="translate(115.50413626194549,236.53006103309139)"><circle class="outline" cx="0" cy="0" r="25" fill="#57C7E3" stroke="#23b3d7" stroke-width="2px"/><text text-anchor="middle" pointer-events="none" font-family="sans-serif" dy="1.5625" font-size="25" fill="#2A2C34"/><text text-anchor="middle" pointer-events="none" font-family="sans-serif" dy="1.5625" font-size="25" fill="#2A2C34"/><text text-anchor="middle" pointer-events="none" x="0" y="0" font-size="10px" fill="#2A2C34" font-family="sans-serif"> Richard</text><text text-anchor="middle" pointer-events="none" x="0" y="10" font-size="10px" fill="#2A2C34" font-family="sans-serif"> Armitage</text></g><g class="node" transform="translate(97.48755744936963,99.06967128173109)"><circle class="outline" cx="0" cy="0" r="25" fill="#F79767" stroke="#f36924" stroke-width="2px"/><text text-anchor="middle" pointer-events="none" font-family="sans-serif" dy="1.5625" font-size="25" fill="#FFFFFF"/><text text-anchor="middle" pointer-events="none" font-family="sans-serif" dy="1.5625" font-size="25" fill="#FFFFFF"/><text text-anchor="middle" pointer-events="none" x="0" y="0" font-size="10px" fill="#FFFFFF" font-family="sans-serif"> Captain</text><text text-anchor="middle" pointer-events="none" x="0" y="10" font-size="10px" fill="#FFFFFF" font-family="sans-serif"> Americ…</text></g><g class="node" transform="translate(170.91520291463607,213.68192204288738)"><circle class="outline" cx="0" cy="0" r="25" fill="#57C7E3" stroke="#23b3d7" stroke-width="2px"/><text text-anchor="middle" pointer-events="none" font-family="sans-serif" dy="1.5625" font-size="25" fill="#2A2C34"/><text text-anchor="middle" pointer-events="none" font-family="sans-serif" dy="1.5625" font-size="25" fill="#2A2C34"/><text text-anchor="middle" pointer-events="none" x="0" y="0" font-size="10px" fill="#2A2C34" font-family="sans-serif"> Tommy</text><text text-anchor="middle" pointer-events="none" x="0" y="10" font-size="10px" fill="#2A2C34" font-family="sans-serif"> Lee Jon…</text></g><g class="node" transform="translate(213.3197015784786,171.26175984807608)"><circle class="outline" cx="0" cy="0" r="25" fill="#57C7E3" stroke="#23b3d7" stroke-width="2px"/><text text-anchor="middle" pointer-events="none" font-family="sans-serif" dy="1.5625" font-size="25" fill="#2A2C34"/><text text-anchor="middle" pointer-events="none" x="0" y="5" font-size="10px" fill="#2A2C34" font-family="sans-serif"> Sebastian</text></g><g class="node" transform="translate(225.15864280733916,56.10827402656371)"><circle class="outline" cx="0" cy="0" r="25" fill="#57C7E3" stroke="#23b3d7" stroke-width="2px"/><text text-anchor="middle" pointer-events="none" font-family="sans-serif" dy="1.5625" font-size="25" fill="#2A2C34"/><text text-anchor="middle" pointer-events="none" font-family="sans-serif" dy="1.5625" font-size="25" fill="#2A2C34"/><text text-anchor="middle" pointer-events="none" x="0" y="0" font-size="10px" fill="#2A2C34" font-family="sans-serif"> Stanley</text><text text-anchor="middle" pointer-events="none" x="0" y="10" font-size="10px" fill="#2A2C34" font-family="sans-serif"> Tucci</text></g><g class="node" transform="translate(234.87121887607424,115.32106908779726)"><circle class="outline" cx="0" cy="0" r="25" fill="#57C7E3" stroke="#23b3d7" stroke-width="2px"/><text text-anchor="middle" pointer-events="none" font-family="sans-serif" dy="1.5625" font-size="25" fill="#2A2C34"/><text text-anchor="middle" pointer-events="none" font-family="sans-serif" dy="1.5625" font-size="25" fill="#2A2C34"/><text text-anchor="middle" pointer-events="none" x="0" y="0" font-size="10px" fill="#2A2C34" font-family="sans-serif"> Joe</text><text text-anchor="middle" pointer-events="none" x="0" y="10" font-size="10px" fill="#2A2C34" font-family="sans-serif"> Johnston</text></g><g class="node" transform="translate(196.71927130306133,3.2766352732785027)"><circle class="outline" cx="0" cy="0" r="25" fill="#57C7E3" stroke="#23b3d7" stroke-width="2px"/><text text-anchor="middle" pointer-events="none" font-family="sans-serif" dy="1.5625" font-size="25" fill="#2A2C34"/><text text-anchor="middle" pointer-events="none" x="0" y="5" font-size="10px" fill="#2A2C34" font-family="sans-serif"> Jack Kirby</text></g><g class="node" transform="translate(143.19264835305893,-28.345956891310493)"><circle class="outline" cx="0" cy="0" r="25" fill="#57C7E3" stroke="#23b3d7" stroke-width="2px"/><text text-anchor="middle" pointer-events="none" font-family="sans-serif" dy="1.5625" font-size="25" fill="#2A2C34"/><text text-anchor="middle" pointer-events="none" font-family="sans-serif" dy="1.5625" font-size="25" fill="#2A2C34"/><text text-anchor="middle" pointer-events="none" x="0" y="0" font-size="10px" fill="#2A2C34" font-family="sans-serif"> Dominic</text><text text-anchor="middle" pointer-events="none" x="0" y="10" font-size="10px" fill="#2A2C34" font-family="sans-serif"> Cooper</text></g><g class="node" transform="translate(80.90344239953737,-36.89101173443531)"><circle class="outline" cx="0" cy="0" r="25" fill="#57C7E3" stroke="#23b3d7" stroke-width="2px"/><text text-anchor="middle" pointer-events="none" font-family="sans-serif" dy="1.5625" font-size="25" fill="#2A2C34"/><text text-anchor="middle" pointer-events="none" font-family="sans-serif" dy="1.5625" font-size="25" fill="#2A2C34"/><text text-anchor="middle" pointer-events="none" x="0" y="0" font-size="10px" fill="#2A2C34" font-family="sans-serif"> Hugo</text><text text-anchor="middle" pointer-events="none" x="0" y="10" font-size="10px" fill="#2A2C34" font-family="sans-serif"> Weaving</text></g><g class="node" transform="translate(-17.29555716923715,27.15145637071429)"><circle class="outline" cx="0" cy="0" r="25" fill="#57C7E3" stroke="#23b3d7" stroke-width="2px"/><text text-anchor="middle" pointer-events="none" font-family="sans-serif" dy="1.5625" font-size="25" fill="#2A2C34"/><text text-anchor="middle" pointer-events="none" font-family="sans-serif" dy="1.5625" font-size="25" fill="#2A2C34"/><text text-anchor="middle" pointer-events="none" font-family="sans-serif" dy="1.5625" font-size="25" fill="#2A2C34"/><text text-anchor="middle" pointer-events="none" x="0" y="-5" font-size="10px" fill="#2A2C34" font-family="sans-serif"> Samuel</text><text text-anchor="middle" pointer-events="none" x="0" y="5" font-size="10px" fill="#2A2C34" font-family="sans-serif"> L.</text><text text-anchor="middle" pointer-events="none" x="0" y="15" font-size="10px" fill="#2A2C34" font-family="sans-serif"> Jackson</text></g><g class="node" transform="translate(24.83383710508578,-15.554093619418502)"><circle class="outline" cx="0" cy="0" r="25" fill="#57C7E3" stroke="#23b3d7" stroke-width="2px"/><text text-anchor="middle" pointer-events="none" font-family="sans-serif" dy="1.5625" font-size="25" fill="#2A2C34"/><text text-anchor="middle" pointer-events="none" font-family="sans-serif" dy="1.5625" font-size="25" fill="#2A2C34"/><text text-anchor="middle" pointer-events="none" x="0" y="0" font-size="10px" fill="#2A2C34" font-family="sans-serif"> Chris</text><text text-anchor="middle" pointer-events="none" x="0" y="10" font-size="10px" fill="#2A2C34" font-family="sans-serif"> Evans</text></g><g class="node" transform="translate(-38.484375188949265,83.27503900908162)"><circle class="outline" cx="0" cy="0" r="25" fill="#57C7E3" stroke="#23b3d7" stroke-width="2px"/><text text-anchor="middle" pointer-events="none" font-family="sans-serif" dy="1.5625" font-size="25" fill="#2A2C34"/><text text-anchor="middle" pointer-events="none" font-family="sans-serif" dy="1.5625" font-size="25" fill="#2A2C34"/><text text-anchor="middle" pointer-events="none" x="0" y="0" font-size="10px" fill="#2A2C34" font-family="sans-serif"> Hayley</text><text text-anchor="middle" pointer-events="none" x="0" y="10" font-size="10px" fill="#2A2C34" font-family="sans-serif"> Atwell</text></g><g class="node" transform="translate(1.1784036501007906,202.2601328399252)"><circle class="outline" cx="0" cy="0" r="25" fill="#57C7E3" stroke="#23b3d7" stroke-width="2px"/><text text-anchor="middle" pointer-events="none" font-family="sans-serif" dy="1.5625" font-size="25" fill="#2A2C34"/><text text-anchor="middle" pointer-events="none" font-family="sans-serif" dy="1.5625" font-size="25" fill="#2A2C34"/><text text-anchor="middle" pointer-events="none" x="0" y="0" font-size="10px" fill="#2A2C34" font-family="sans-serif"> Joe</text><text text-anchor="middle" pointer-events="none" x="0" y="10" font-size="10px" fill="#2A2C34" font-family="sans-serif"> Simon</text></g><g class="node" transform="translate(-28.377318448604207,145.65524648598262)"><circle class="outline" cx="0" cy="0" r="25" fill="#57C7E3" stroke="#23b3d7" stroke-width="2px"/><text text-anchor="middle" pointer-events="none" font-family="sans-serif" dy="1.5625" font-size="25" fill="#2A2C34"/><text text-anchor="middle" pointer-events="none" font-family="sans-serif" dy="1.5625" font-size="25" fill="#2A2C34"/><text text-anchor="middle" pointer-events="none" x="0" y="0" font-size="10px" fill="#2A2C34" font-family="sans-serif"> Stephen</text><text text-anchor="middle" pointer-events="none" x="0" y="10" font-size="10px" fill="#2A2C34" font-family="sans-serif"> McFeely</text></g><g class="node" transform="translate(56.60395453512729,225.24489002050592)"><circle class="outline" cx="0" cy="0" r="25" fill="#57C7E3" stroke="#23b3d7" stroke-width="2px"/><text text-anchor="middle" pointer-events="none" font-family="sans-serif" dy="1.5625" font-size="25" fill="#2A2C34"/><text text-anchor="middle" pointer-events="none" x="0" y="5" font-size="10px" fill="#2A2C34" font-family="sans-serif"> Christop…</text></g></g></svg>