<svg xmlns="http://www.w3.org/2000/svg" width="379.6214599609375" height="371.03131103515625" viewBox="-92.25013732910156 -82.75967407226562 379.6214599609375 371.03131103515625"><title>Neo4j Graph Visualization</title><desc>Created using Neo4j (http://www.neo4j.com/)</desc><g class="layer relationships"><g class="relationship" transform="translate(151.98380079054613 259.2716398262981) rotate(305.93849268412686)"><path class="outline" fill="#A5ABB6" stroke="none" d="M 24.018736134675446,6.953439040707552 L 24.277555179777966,5.987513214418485 A 100.1132154964055 100.1132154964055 0 0 0 30.87835537987148,7.518785692694678 L 30.68546968999448,8.500006926994402 A 101.1132154964055 101.1132154964055 0 0 1 24.018736134675446,6.953439040707552 Z M 66.4428467753143,9.083804645039919 L 66.28209543654205,8.096809707320915 A 100.1132154964055 100.1132154964055 0 0 0 72.92936530329438,6.781833660829354 L 72.24791870784233,3.860253516875259 L 79.8599600717626,5.6787216287669535 L 73.83796076389709,10.677273852768147 L 73.15651416844504,7.755693708814053 A 101.1132154964055 101.1132154964055 0 0 1 66.4428467753143,9.083804645039919"/><text text-anchor="middle" pointer-events="none" font-size="8px" fill="#000000" x="48.54630545467977" y="12.885381307291937" font-family="sans-serif">WROTE</text></g><g class="relationship" transform="translate(151.98380079054613 259.2716398262981) rotate(305.93849268412686)"><path class="outline" fill="#A5ABB6" stroke="none" d="M 24.018736134675446,-6.953439040707552 L 24.277555179777966,-5.987513214418485 A 100.1132154964055 100.1132154964055 0 0 1 25.48347296967606,-6.302605391040771 L 25.23669946505407,-7.271678575798546 A 101.1132154964055 101.1132154964055 0 0 0 24.018736134675446,-6.953439040707552 Z M 71.92881118984451,-8.034003737697802 L 71.7138041893608,-7.0573912302297686 A 100.1132154964055 100.1132154964055 0 0 1 72.92936530329438,-6.781833660829354 L 72.24791870784233,-3.860253516875259 L 79.8599600717626,-5.6787216287669535 L 73.83796076389709,-10.677273852768147 L 73.15651416844504,-7.755693708814053 A 101.1132154964055 101.1132154964055 0 0 0 71.92881118984451,-8.034003737697802"/><text text-anchor="middle" pointer-events="none" font-size="8px" fill="#000000" x="48.54630545467975" y="-6.8853813072919365" font-family="sans-serif">DIRECTED</text></g><g class="relationship" transform="translate(258.37130936362394 80.93846438422186) rotate(475.7028932212363)"><path class="outline" fill="#A5ABB6" stroke="none" d="M 24.018736134675446,6.953439040707552 L 24.277555179777966,5.987513214418485 A 100.26193032627044 100.26193032627044 0 0 0 30.91504803051826,7.526341976259232 L 30.722430512048437,8.507615888874128 A 101.26193032627044 101.26193032627044 0 0 1 24.018736134675446,6.953439040707552 Z M 66.48010973540602,9.09102815038338 L 66.31960659828351,8.103992820228555 A 100.26193032627044 100.26193032627044 0 0 0 73.00376738549564,6.782516421426081 L 72.32225701367999,3.8609511537814054 L 79.93433807196915,5.679253098463693 L 73.91244788124983,10.677936778285648 L 73.23093750943418,7.756371510640973 A 101.26193032627044 101.26193032627044 0 0 1 66.48010973540602,9.09102815038338"/><text text-anchor="middle" pointer-events="none" font-size="8px" fill="#000000" x="48.58346763839278" y="12.890446773024749" transform="rotate(180 48.58346763839278 9.890446773024749)" font-family="sans-serif">WROTE</text></g><g class="relationship" transform="translate(258.37130936362394 80.93846438422186) rotate(475.7028932212363)"><path class="outline" fill="#A5ABB6" stroke="none" d="M 24.018736134675446,-6.953439040707552 L 24.277555179777966,-5.987513214418485 A 100.26193032627044 100.26193032627044 0 0 1 25.51974213197991,-6.311846676412287 L 25.273312504756735,-7.281007364237908 A 101.26193032627044 101.26193032627044 0 0 0 24.018736134675446,-6.953439040707552 Z M 71.96634272379853,-8.042837744410278 L 71.75166095339583,-7.066153692397165 A 100.26193032627044 100.26193032627044 0 0 1 73.00376738549564,-6.782516421426081 L 72.32225701367999,-3.8609511537814054 L 79.93433807196915,-5.679253098463693 L 73.91244788124983,-10.677936778285648 L 73.23093750943418,-7.756371510640973 A 101.26193032627044 101.26193032627044 0 0 0 71.96634272379853,-8.042837744410278"/><text text-anchor="middle" pointer-events="none" font-size="8px" fill="#000000" x="48.58346763839276" y="-6.890446773024749" transform="rotate(180 48.58346763839276 -9.890446773024749)" font-family="sans-serif">DIRECTED</text></g><g class="relationship" transform="translate(143.23988991650953 -53.759668507870224) rotate(534.7684450314409)"><path class="outline" fill="#A5ABB6" stroke="none" d="M 21.40063509461097,12.933012701892217 L 21.90063509461097,12.06698729810778 A 56.69052389428423 56.69052389428423 0 0 0 23.846063592887365,13.139912935457183 L 23.380380236386802,14.02486435303804 A 57.69052389428423 57.69052389428423 0 0 1 21.40063509461097,12.933012701892217 Z M 73.82300012883965,15.624347843159804 L 73.41431770587725,14.711671187842285 A 56.69052389428423 56.69052389428423 0 0 0 75.42381242442508,13.764152089715004 L 74.091424911322,11.076263789408053 L 81.91761637732515,11.103229275858983 L 77.20032910856251,17.34800315679094 L 75.86794159545943,14.66011485648399 A 57.69052389428423 57.69052389428423 0 0 1 73.82300012883965,15.624347843159804"/><text text-anchor="middle" pointer-events="none" font-size="8px" fill="#000000" x="48.43335545914532" y="23.13334765312849" transform="rotate(180 48.43335545914532 20.13334765312849)" font-family="sans-serif">PRODUCED</text></g><g class="relationship" transform="translate(143.23988991650953 -53.759668507870224) rotate(534.7684450314409)"><path class="outline" fill="#A5ABB6" stroke="none" d="M 25 0.5 L 25.213030273274875 0.5 L 25.213030273274875 -0.5 L 25 -0.5 Z M 72.10365527327488 0.5 L 72.31668554654975 0.5 L 72.31668554654975 3.5 L 79.31668554654975 0 L 72.31668554654975 -3.5 L 72.31668554654975 -0.5 L 72.10365527327488 -0.5 Z"/><text text-anchor="middle" pointer-events="none" font-size="8px" fill="#000000" x="48.658342773274875" y="3" transform="rotate(180 48.658342773274875 0)" font-family="sans-serif">DIRECTED</text></g><g class="relationship" transform="translate(143.23988991650953 -53.759668507870224) rotate(534.7684450314409)"><path class="outline" fill="#A5ABB6" stroke="none" d="M 21.40063509461097,-12.933012701892217 L 21.90063509461097,-12.06698729810778 A 56.69052389428423 56.69052389428423 0 0 1 31.102426995760343,-16.332054330329434 L 30.764743221983775,-17.27331394856874 A 57.69052389428423 57.69052389428423 0 0 0 21.40063509461097,-12.933012701892217 Z M 66.24766852133634,-18.39844094075398 L 65.97029590622704,-17.43767851830635 A 56.69052389428423 56.69052389428423 0 0 1 75.42381242442508,-13.764152089715004 L 74.091424911322,-11.076263789408053 L 81.91761637732515,-11.103229275858983 L 77.20032910856251,-17.34800315679094 L 75.86794159545943,-14.66011485648399 A 57.69052389428423 57.69052389428423 0 0 0 66.24766852133634,-18.39844094075398"/><text text-anchor="middle" pointer-events="none" font-size="8px" fill="#000000" x="48.43335545914531" y="-17.13334765312849" transform="rotate(180 48.43335545914531 -20.13334765312849)" font-family="sans-serif">WROTE</text></g><g class="relationship" transform="translate(-63.25013217564268 98.86779887528677) rotate(432.52732842708906)"><path class="outline" fill="#A5ABB6" stroke="none" d="M 21.40063509461097,12.933012701892217 L 21.90063509461097,12.06698729810778 A 57.586427837587856 57.586427837587856 0 0 0 24.245882055282344,13.349384633527322 L 23.7866077444549,14.237679127157655 A 58.586427837587856 58.586427837587856 0 0 1 21.40063509461097,12.933012701892217 Z M 74.27636165149035,15.826216047926522 L 73.87383646761225,14.910807135831 A 57.586427837587856 57.586427837587856 0 0 0 76.29506014051208,13.778375169565992 L 74.96134946830418,11.091143165655886 L 82.78755326167031,11.114255601732557 L 78.07334103678929,17.361351174779468 L 76.73963036458139,14.674119170869362 A 58.586427837587856 58.586427837587856 0 0 1 74.27636165149035,15.826216047926522"/><text text-anchor="middle" pointer-events="none" font-size="8px" fill="#000000" x="48.867205149008456" y="23.253377376624314" font-family="sans-serif">PRODUCED</text></g><g class="relationship" transform="translate(-63.25013217564268 98.86779887528677) rotate(432.52732842708906)"><path class="outline" fill="#A5ABB6" stroke="none" d="M 25 0.5 L 31.203857897127257 0.5 L 31.203857897127257 -0.5 L 25 -0.5 Z M 66.97729539712725 0.5 L 73.18115329425451 0.5 L 73.18115329425451 3.5 L 80.18115329425451 0 L 73.18115329425451 -3.5 L 73.18115329425451 -0.5 L 66.97729539712725 -0.5 Z"/><text text-anchor="middle" pointer-events="none" font-size="8px" fill="#000000" x="49.09057664712726" y="3" font-family="sans-serif">WROTE</text></g><g class="relationship" transform="translate(-63.25013217564268 98.86779887528677) rotate(432.52732842708906)"><path class="outline" fill="#A5ABB6" stroke="none" d="M 21.40063509461097,-12.933012701892217 L 21.90063509461097,-12.06698729810778 A 57.586427837587856 57.586427837587856 0 0 1 26.422138477975714,-14.417136482024212 L 26.000655301351475,-15.323972703082205 A 58.586427837587856 58.586427837587856 0 0 0 21.40063509461097,-12.933012701892217 Z M 71.99840554218903,-16.77117968817496 L 71.6347623347922,-15.839641381010871 A 57.586427837587856 57.586427837587856 0 0 1 76.29506014051208,-13.778375169565992 L 74.96134946830418,-11.091143165655886 L 82.78755326167031,-11.114255601732557 L 78.07334103678929,-17.361351174779468 L 76.73963036458139,-14.674119170869362 A 58.586427837587856 58.586427837587856 0 0 0 71.99840554218903,-16.77117968817496"/><text text-anchor="middle" pointer-events="none" font-size="8px" fill="#000000" x="48.86720514900845" y="-17.253377376624314" font-family="sans-serif">DIRECTED</text></g></g><g class="layer nodes"><g class="node" transform="translate(151.98380079054613,259.2716398262981)"><circle class="outline" cx="0" cy="0" r="25" fill="#57C7E3" stroke="#23b3d7" stroke-width="2px"/><text text-anchor="middle" pointer-events="none" font-family="sans-serif" dy="1.5625" font-size="25" fill="#2A2C34"/><text text-anchor="middle" pointer-events="none" font-family="sans-serif" dy="1.5625" font-size="25" fill="#2A2C34"/><text text-anchor="middle" pointer-events="none" x="0" y="0" font-size="10px" fill="#2A2C34" font-family="sans-serif"> Andy</text><text text-anchor="middle" pointer-events="none" x="0" y="10" font-size="10px" fill="#2A2C34" font-family="sans-serif"> Wacho…</text></g><g class="node" transform="translate(213.1442850064705,174.90113703546908)"><circle class="outline" cx="0" cy="0" r="25" fill="#F79767" stroke="#f36924" stroke-width="2px"/><text text-anchor="middle" pointer-events="none" font-family="sans-serif" dy="1.5625" font-size="25" fill="#FFFFFF"/><text text-anchor="middle" pointer-events="none" font-family="sans-serif" dy="1.5625" font-size="25" fill="#FFFFFF"/><text text-anchor="middle" pointer-events="none" x="0" y="0" font-size="10px" fill="#FFFFFF" font-family="sans-serif"> Speed</text><text text-anchor="middle" pointer-events="none" x="0" y="10" font-size="10px" fill="#FFFFFF" font-family="sans-serif"> Racer</text></g><g class="node" transform="translate(258.37130936362394,80.93846438422186)"><circle class="outline" cx="0" cy="0" r="25" fill="#57C7E3" stroke="#23b3d7" stroke-width="2px"/><text text-anchor="middle" pointer-events="none" font-family="sans-serif" dy="1.5625" font-size="25" fill="#2A2C34"/><text text-anchor="middle" pointer-events="none" font-family="sans-serif" dy="1.5625" font-size="25" fill="#2A2C34"/><text text-anchor="middle" pointer-events="none" x="0" y="0" font-size="10px" fill="#2A2C34" font-family="sans-serif"> Lana</text><text text-anchor="middle" pointer-events="none" x="0" y="10" font-size="10px" fill="#2A2C34" font-family="sans-serif"> Wacho…</text></g><g class="node" transform="translate(143.23988991650953,-53.759668507870224)"><circle class="outline" cx="0" cy="0" r="25" fill="#57C7E3" stroke="#23b3d7" stroke-width="2px"/><text text-anchor="middle" pointer-events="none" font-family="sans-serif" dy="1.5625" font-size="25" fill="#2A2C34"/><text text-anchor="middle" pointer-events="none" font-family="sans-serif" dy="1.5625" font-size="25" fill="#2A2C34"/><text text-anchor="middle" pointer-events="none" x="0" y="0" font-size="10px" fill="#2A2C34" font-family="sans-serif"> Cameron</text><text text-anchor="middle" pointer-events="none" x="0" y="10" font-size="10px" fill="#2A2C34" font-family="sans-serif"> Crowe</text></g><g class="node" transform="translate(39.357752968304915,-44.24796484910322)"><circle class="outline" cx="0" cy="0" r="25" fill="#F79767" stroke="#f36924" stroke-width="2px"/><text text-anchor="middle" pointer-events="none" font-family="sans-serif" dy="1.5625" font-size="25" fill="#FFFFFF"/><text text-anchor="middle" pointer-events="none" font-family="sans-serif" dy="1.5625" font-size="25" fill="#FFFFFF"/><text text-anchor="middle" pointer-events="none" x="0" y="0" font-size="10px" fill="#FFFFFF" font-family="sans-serif"> Jerry</text><text text-anchor="middle" pointer-events="none" x="0" y="10" font-size="10px" fill="#FFFFFF" font-family="sans-serif"> Maguire</text></g><g class="node" transform="translate(-63.25013217564268,98.86779887528677)"><circle class="outline" cx="0" cy="0" r="25" fill="#57C7E3" stroke="#23b3d7" stroke-width="2px"/><text text-anchor="middle" pointer-events="none" font-family="sans-serif" dy="1.5625" font-size="25" fill="#2A2C34"/><text text-anchor="middle" pointer-events="none" font-family="sans-serif" dy="1.5625" font-size="25" fill="#2A2C34"/><text text-anchor="middle" pointer-events="none" x="0" y="0" font-size="10px" fill="#2A2C34" font-family="sans-serif"> Nancy</text><text text-anchor="middle" pointer-events="none" x="0" y="10" font-size="10px" fill="#2A2C34" font-family="sans-serif"> Meyers</text></g><g class="node" transform="translate(-31.669399395887837,199.19592217779444)"><circle class="outline" cx="0" cy="0" r="25" fill="#F79767" stroke="#f36924" stroke-width="2px"/><text text-anchor="middle" pointer-events="none" font-family="sans-serif" dy="1.5625" font-size="25" fill="#FFFFFF"/><text text-anchor="middle" pointer-events="none" x="0" y="5" font-size="10px" fill="#FFFFFF" font-family="sans-serif"> Somethi…</text></g></g></svg>